<mxfile host="app.diagrams.net" modified="2023-10-31T06:08:15.125Z" agent="Mozilla/5.0 (Windows NT 10.0; Win64; x64) AppleWebKit/537.36 (KHTML, like Gecko) Chrome/118.0.0.0 Safari/537.36" etag="dUpS8BDb8XG5IangNzJ_" version="22.0.8" type="device">
  <diagram name="Page-1" id="YzHwbhFauu-HgC0qbXK6">
    <mxGraphModel dx="891" dy="482" grid="1" gridSize="10" guides="1" tooltips="1" connect="1" arrows="1" fold="1" page="1" pageScale="1" pageWidth="827" pageHeight="1169" math="0" shadow="0">
      <root>
        <mxCell id="0" />
        <mxCell id="1" parent="0" />
        <mxCell id="Yt0nlKFjhNb3IKqCfCv_-18" style="edgeStyle=orthogonalEdgeStyle;rounded=0;orthogonalLoop=1;jettySize=auto;html=1;exitX=0.5;exitY=0;exitDx=0;exitDy=0;entryX=0.5;entryY=1;entryDx=0;entryDy=0;strokeColor=#3399FF;" edge="1" parent="1" source="Yt0nlKFjhNb3IKqCfCv_-1" target="Yt0nlKFjhNb3IKqCfCv_-16">
          <mxGeometry relative="1" as="geometry" />
        </mxCell>
        <mxCell id="Yt0nlKFjhNb3IKqCfCv_-23" style="edgeStyle=orthogonalEdgeStyle;rounded=0;orthogonalLoop=1;jettySize=auto;html=1;exitX=1;exitY=0.75;exitDx=0;exitDy=0;entryX=0.5;entryY=1;entryDx=0;entryDy=0;fillColor=#f5f5f5;strokeColor=#666666;" edge="1" parent="1" source="Yt0nlKFjhNb3IKqCfCv_-1" target="Yt0nlKFjhNb3IKqCfCv_-5">
          <mxGeometry relative="1" as="geometry" />
        </mxCell>
        <mxCell id="Yt0nlKFjhNb3IKqCfCv_-29" style="edgeStyle=orthogonalEdgeStyle;rounded=0;orthogonalLoop=1;jettySize=auto;html=1;exitX=0.75;exitY=1;exitDx=0;exitDy=0;entryX=0;entryY=0.5;entryDx=0;entryDy=0;fillColor=#e1d5e7;strokeColor=#9673a6;" edge="1" parent="1" source="Yt0nlKFjhNb3IKqCfCv_-1" target="Yt0nlKFjhNb3IKqCfCv_-8">
          <mxGeometry relative="1" as="geometry" />
        </mxCell>
        <mxCell id="Yt0nlKFjhNb3IKqCfCv_-1" value="BLE" style="rounded=0;whiteSpace=wrap;html=1;fillColor=#dae8fc;strokeColor=#6c8ebf;" vertex="1" parent="1">
          <mxGeometry x="200" y="180" width="80" height="80" as="geometry" />
        </mxCell>
        <mxCell id="Yt0nlKFjhNb3IKqCfCv_-17" style="edgeStyle=orthogonalEdgeStyle;rounded=0;orthogonalLoop=1;jettySize=auto;html=1;exitX=1;exitY=0.5;exitDx=0;exitDy=0;entryX=0;entryY=0.5;entryDx=0;entryDy=0;fillColor=#fa6800;strokeColor=#C73500;" edge="1" parent="1" source="Yt0nlKFjhNb3IKqCfCv_-2" target="Yt0nlKFjhNb3IKqCfCv_-3">
          <mxGeometry relative="1" as="geometry" />
        </mxCell>
        <mxCell id="Yt0nlKFjhNb3IKqCfCv_-2" value="Main AC" style="rounded=0;whiteSpace=wrap;html=1;fillColor=#f8cecc;strokeColor=#b85450;" vertex="1" parent="1">
          <mxGeometry x="40" y="60" width="80" height="40" as="geometry" />
        </mxCell>
        <mxCell id="Yt0nlKFjhNb3IKqCfCv_-19" style="edgeStyle=orthogonalEdgeStyle;rounded=0;orthogonalLoop=1;jettySize=auto;html=1;exitX=1;exitY=0.5;exitDx=0;exitDy=0;entryX=0.5;entryY=0;entryDx=0;entryDy=0;fillColor=#fa6800;strokeColor=#C73500;" edge="1" parent="1" source="Yt0nlKFjhNb3IKqCfCv_-3" target="Yt0nlKFjhNb3IKqCfCv_-7">
          <mxGeometry relative="1" as="geometry">
            <mxPoint x="153.04" y="9.329999999999998" as="sourcePoint" />
            <mxPoint x="440" y="70.64999999999992" as="targetPoint" />
            <Array as="points">
              <mxPoint x="220" y="70" />
              <mxPoint x="380" y="70" />
            </Array>
          </mxGeometry>
        </mxCell>
        <mxCell id="Yt0nlKFjhNb3IKqCfCv_-21" style="edgeStyle=orthogonalEdgeStyle;rounded=0;orthogonalLoop=1;jettySize=auto;html=1;exitX=1;exitY=0.25;exitDx=0;exitDy=0;fillColor=#fa6800;strokeColor=#C73500;entryX=0.5;entryY=0;entryDx=0;entryDy=0;" edge="1" parent="1" target="Yt0nlKFjhNb3IKqCfCv_-6">
          <mxGeometry relative="1" as="geometry">
            <mxPoint x="219.98" y="80" as="sourcePoint" />
            <mxPoint x="460" y="170" as="targetPoint" />
            <Array as="points">
              <mxPoint x="460" y="80" />
            </Array>
          </mxGeometry>
        </mxCell>
        <mxCell id="Yt0nlKFjhNb3IKqCfCv_-33" style="edgeStyle=orthogonalEdgeStyle;rounded=0;orthogonalLoop=1;jettySize=auto;html=1;exitX=0.5;exitY=1;exitDx=0;exitDy=0;entryX=0.5;entryY=0;entryDx=0;entryDy=0;fillColor=#fa6800;strokeColor=#C73500;" edge="1" parent="1" source="Yt0nlKFjhNb3IKqCfCv_-3" target="Yt0nlKFjhNb3IKqCfCv_-15">
          <mxGeometry relative="1" as="geometry" />
        </mxCell>
        <mxCell id="Yt0nlKFjhNb3IKqCfCv_-3" value="Protection" style="rounded=0;whiteSpace=wrap;html=1;fillColor=#fff2cc;strokeColor=#d6b656;" vertex="1" parent="1">
          <mxGeometry x="140" y="60" width="80" height="40" as="geometry" />
        </mxCell>
        <mxCell id="Yt0nlKFjhNb3IKqCfCv_-24" style="edgeStyle=orthogonalEdgeStyle;rounded=0;orthogonalLoop=1;jettySize=auto;html=1;exitX=1;exitY=0.5;exitDx=0;exitDy=0;entryX=0;entryY=0.5;entryDx=0;entryDy=0;fillColor=#f8cecc;strokeColor=#b85450;" edge="1" parent="1" source="Yt0nlKFjhNb3IKqCfCv_-5" target="Yt0nlKFjhNb3IKqCfCv_-6">
          <mxGeometry relative="1" as="geometry" />
        </mxCell>
        <mxCell id="Yt0nlKFjhNb3IKqCfCv_-5" value="PLC&lt;br&gt;Modem" style="rounded=0;whiteSpace=wrap;html=1;fillColor=#d5e8d4;strokeColor=#82b366;" vertex="1" parent="1">
          <mxGeometry x="320" y="180" width="80" height="40" as="geometry" />
        </mxCell>
        <mxCell id="Yt0nlKFjhNb3IKqCfCv_-25" style="edgeStyle=orthogonalEdgeStyle;rounded=0;orthogonalLoop=1;jettySize=auto;html=1;exitX=1;exitY=0.5;exitDx=0;exitDy=0;entryX=0;entryY=0.5;entryDx=0;entryDy=0;fillColor=#f8cecc;strokeColor=#b85450;" edge="1" parent="1" source="Yt0nlKFjhNb3IKqCfCv_-6" target="Yt0nlKFjhNb3IKqCfCv_-13">
          <mxGeometry relative="1" as="geometry" />
        </mxCell>
        <mxCell id="Yt0nlKFjhNb3IKqCfCv_-6" value="AC Coupler" style="rounded=0;whiteSpace=wrap;html=1;fillColor=#d5e8d4;strokeColor=#82b366;" vertex="1" parent="1">
          <mxGeometry x="420" y="180" width="80" height="40" as="geometry" />
        </mxCell>
        <mxCell id="Yt0nlKFjhNb3IKqCfCv_-20" style="edgeStyle=orthogonalEdgeStyle;rounded=0;orthogonalLoop=1;jettySize=auto;html=1;exitX=0;exitY=0.5;exitDx=0;exitDy=0;entryX=1;entryY=0.25;entryDx=0;entryDy=0;fillColor=#dae8fc;strokeColor=#6c8ebf;" edge="1" parent="1" source="Yt0nlKFjhNb3IKqCfCv_-7" target="Yt0nlKFjhNb3IKqCfCv_-1">
          <mxGeometry relative="1" as="geometry" />
        </mxCell>
        <mxCell id="Yt0nlKFjhNb3IKqCfCv_-7" value="Zero Crossing" style="rounded=0;whiteSpace=wrap;html=1;fillColor=#d5e8d4;strokeColor=#82b366;" vertex="1" parent="1">
          <mxGeometry x="320" y="100" width="120" height="40" as="geometry" />
        </mxCell>
        <mxCell id="Yt0nlKFjhNb3IKqCfCv_-8" value="LED Driver" style="rounded=0;whiteSpace=wrap;html=1;fillColor=#e1d5e7;strokeColor=#9673a6;" vertex="1" parent="1">
          <mxGeometry x="280" y="330" width="120" height="40" as="geometry" />
        </mxCell>
        <mxCell id="Yt0nlKFjhNb3IKqCfCv_-30" style="edgeStyle=orthogonalEdgeStyle;rounded=0;orthogonalLoop=1;jettySize=auto;html=1;exitX=0.5;exitY=0;exitDx=0;exitDy=0;entryX=1;entryY=1;entryDx=0;entryDy=0;fillColor=#dae8fc;strokeColor=#6c8ebf;" edge="1" parent="1" source="Yt0nlKFjhNb3IKqCfCv_-9" target="Yt0nlKFjhNb3IKqCfCv_-1">
          <mxGeometry relative="1" as="geometry" />
        </mxCell>
        <mxCell id="Yt0nlKFjhNb3IKqCfCv_-9" value="Capacitive Touch&lt;br&gt;Sensor" style="rounded=0;whiteSpace=wrap;html=1;fillColor=#f0a30a;strokeColor=#BD7000;fontColor=#000000;" vertex="1" parent="1">
          <mxGeometry x="280" y="280" width="120" height="40" as="geometry" />
        </mxCell>
        <mxCell id="Yt0nlKFjhNb3IKqCfCv_-10" value="Temp Sensor" style="rounded=0;whiteSpace=wrap;html=1;fillColor=#bac8d3;strokeColor=#23445d;" vertex="1" parent="1">
          <mxGeometry x="110" y="260" width="80" height="40" as="geometry" />
        </mxCell>
        <mxCell id="Yt0nlKFjhNb3IKqCfCv_-27" style="edgeStyle=orthogonalEdgeStyle;rounded=0;orthogonalLoop=1;jettySize=auto;html=1;exitX=1;exitY=0.5;exitDx=0;exitDy=0;entryX=0.25;entryY=1;entryDx=0;entryDy=0;fillColor=#dae8fc;strokeColor=#6c8ebf;" edge="1" parent="1" source="Yt0nlKFjhNb3IKqCfCv_-11" target="Yt0nlKFjhNb3IKqCfCv_-1">
          <mxGeometry relative="1" as="geometry" />
        </mxCell>
        <mxCell id="Yt0nlKFjhNb3IKqCfCv_-11" value="Humidity Sensor" style="rounded=0;whiteSpace=wrap;html=1;fillColor=#bac8d3;strokeColor=#23445d;" vertex="1" parent="1">
          <mxGeometry x="110" y="310" width="80" height="40" as="geometry" />
        </mxCell>
        <mxCell id="Yt0nlKFjhNb3IKqCfCv_-28" style="edgeStyle=orthogonalEdgeStyle;rounded=0;orthogonalLoop=1;jettySize=auto;html=1;exitX=1;exitY=0.5;exitDx=0;exitDy=0;entryX=0.5;entryY=1;entryDx=0;entryDy=0;fillColor=#dae8fc;strokeColor=#6c8ebf;" edge="1" parent="1" source="Yt0nlKFjhNb3IKqCfCv_-12" target="Yt0nlKFjhNb3IKqCfCv_-1">
          <mxGeometry relative="1" as="geometry" />
        </mxCell>
        <mxCell id="Yt0nlKFjhNb3IKqCfCv_-12" value="ALS" style="rounded=0;whiteSpace=wrap;html=1;fillColor=#bac8d3;strokeColor=#23445d;" vertex="1" parent="1">
          <mxGeometry x="110" y="360" width="80" height="40" as="geometry" />
        </mxCell>
        <mxCell id="Yt0nlKFjhNb3IKqCfCv_-13" value="Light" style="rounded=0;whiteSpace=wrap;html=1;fillColor=#e3c800;fontColor=#000000;strokeColor=#B09500;" vertex="1" parent="1">
          <mxGeometry x="520" y="180" width="80" height="40" as="geometry" />
        </mxCell>
        <mxCell id="Yt0nlKFjhNb3IKqCfCv_-31" style="edgeStyle=orthogonalEdgeStyle;rounded=0;orthogonalLoop=1;jettySize=auto;html=1;exitX=1;exitY=0.5;exitDx=0;exitDy=0;entryX=0;entryY=0.75;entryDx=0;entryDy=0;fillColor=#fa6800;strokeColor=#C73500;" edge="1" parent="1" source="Yt0nlKFjhNb3IKqCfCv_-14" target="Yt0nlKFjhNb3IKqCfCv_-1">
          <mxGeometry relative="1" as="geometry" />
        </mxCell>
        <mxCell id="Yt0nlKFjhNb3IKqCfCv_-14" value="Battery" style="rounded=0;whiteSpace=wrap;html=1;fillColor=#f8cecc;strokeColor=#b85450;" vertex="1" parent="1">
          <mxGeometry x="40" y="190" width="80" height="40" as="geometry" />
        </mxCell>
        <mxCell id="Yt0nlKFjhNb3IKqCfCv_-32" style="edgeStyle=orthogonalEdgeStyle;rounded=0;orthogonalLoop=1;jettySize=auto;html=1;exitX=1;exitY=0.5;exitDx=0;exitDy=0;entryX=0;entryY=0.25;entryDx=0;entryDy=0;fillColor=#fa6800;strokeColor=#C73500;" edge="1" parent="1" source="Yt0nlKFjhNb3IKqCfCv_-15" target="Yt0nlKFjhNb3IKqCfCv_-1">
          <mxGeometry relative="1" as="geometry" />
        </mxCell>
        <mxCell id="Yt0nlKFjhNb3IKqCfCv_-15" value="Transformerless&lt;br&gt;AC/DC Power Supply" style="rounded=0;whiteSpace=wrap;html=1;fillColor=#f8cecc;strokeColor=#b85450;" vertex="1" parent="1">
          <mxGeometry x="40" y="140" width="120" height="40" as="geometry" />
        </mxCell>
        <mxCell id="Yt0nlKFjhNb3IKqCfCv_-16" value="PCB&lt;br&gt;Antenna" style="rounded=0;whiteSpace=wrap;html=1;fillColor=#dae8fc;strokeColor=#6c8ebf;" vertex="1" parent="1">
          <mxGeometry x="200" y="120" width="80" height="40" as="geometry" />
        </mxCell>
        <mxCell id="Yt0nlKFjhNb3IKqCfCv_-26" style="edgeStyle=orthogonalEdgeStyle;rounded=0;orthogonalLoop=1;jettySize=auto;html=1;exitX=1;exitY=0.5;exitDx=0;exitDy=0;entryX=0.077;entryY=1.006;entryDx=0;entryDy=0;entryPerimeter=0;fillColor=#dae8fc;strokeColor=#6c8ebf;" edge="1" parent="1" source="Yt0nlKFjhNb3IKqCfCv_-10" target="Yt0nlKFjhNb3IKqCfCv_-1">
          <mxGeometry relative="1" as="geometry" />
        </mxCell>
      </root>
    </mxGraphModel>
  </diagram>
</mxfile>
